<svg xmlns="http://www.w3.org/2000/svg" viewBox="0 0 1400 320">
    <path fill="#e06386" fill-opacity="1" d="M0,192L30,181.3C60,171,120,149,180,128C240,107,300,85,360,85.3C420,85,480,107,540,133.3C600,160,660,192,720,186.7C780,181,840,139,900,133.3C960,128,1020,160,1080,176C1140,192,1200,192,1260,170.7C1320,149,1380,107,1410,85.3L1440,64L1440,320L1410,320C1380,320,1320,320,1260,320C1200,320,1140,320,1080,320C1020,320,960,320,900,320C840,320,780,320,720,320C660,320,600,320,540,320C480,320,420,320,360,320C300,320,240,320,180,320C120,320,60,320,30,320L0,320Z"></path>
</svg>